<?xml version="1.0" encoding="utf-8"?>
<!-- Generator: Adobe Illustrator 21.1.0, SVG Export Plug-In . SVG Version: 6.00 Build 0)  -->
<svg version="1.1" id="Layer_1" xmlns="http://www.w3.org/2000/svg" xmlns:xlink="http://www.w3.org/1999/xlink" x="0px" y="0px"
	 viewBox="0 0 642.2 100.4" style="enable-background:new 0 0 642.2 100.4;" xml:space="preserve">
<style type="text/css">
	.st0{fill:#454547;}
</style>
<path class="st0" d="M46.9,100.4L0,66.1V0.6h93.5v65.5L46.9,100.4z M66.9,51.7l7.9-21.6l-15.1,5.7L46.7,20L34,35.2l-14.9-5l7.7,21.6
	H66.9z M66.7,57.6H27.1v5.8h39.6V57.6z"/>
<g>
	<path class="st0" d="M154.6,8h-11.1V0.6h30.2V8h-11.1v29h-8V8z"/>
	<path class="st0" d="M197.5,37.6c-2.8,0-5.4-0.5-7.7-1.5c-2.4-1-4.4-2.3-6.1-4c-1.7-1.7-3.1-3.7-4-5.9c-1-2.3-1.4-4.7-1.4-7.3v-0.1
		c0-2.6,0.5-5,1.5-7.3c1-2.3,2.3-4.3,4-6c1.7-1.7,3.8-3.1,6.1-4.1c2.4-1,5-1.5,7.8-1.5c2.8,0,5.4,0.5,7.7,1.5c2.4,1,4.4,2.3,6.1,4
		c1.7,1.7,3.1,3.7,4,5.9c1,2.3,1.4,4.7,1.4,7.3v0.1c0,2.6-0.5,5-1.5,7.3c-1,2.3-2.3,4.3-4,6s-3.8,3.1-6.1,4.1
		C202.9,37.2,200.3,37.6,197.5,37.6z M197.6,30.3c1.6,0,3.1-0.3,4.4-0.9c1.4-0.6,2.5-1.4,3.5-2.4c1-1,1.7-2.2,2.2-3.6
		c0.5-1.4,0.8-2.8,0.8-4.4v-0.1c0-1.6-0.3-3-0.8-4.4c-0.5-1.4-1.3-2.6-2.3-3.6c-1-1-2.2-1.9-3.5-2.5c-1.4-0.6-2.8-0.9-4.4-0.9
		c-1.6,0-3.1,0.3-4.4,0.9c-1.3,0.6-2.5,1.4-3.4,2.4c-1,1-1.7,2.2-2.2,3.6c-0.5,1.4-0.8,2.8-0.8,4.4v0.1c0,1.6,0.3,3,0.8,4.4
		c0.5,1.4,1.3,2.6,2.3,3.6c1,1,2.1,1.9,3.5,2.5C194.5,30,196,30.3,197.6,30.3z"/>
	<path class="st0" d="M224,0.6h14.9c2.2,0,4.1,0.3,5.8,0.9c1.7,0.6,3.2,1.5,4.4,2.6c1.2,1.1,2.1,2.4,2.8,4c0.6,1.5,1,3.2,1,5.1v0.1
		c0,2.1-0.4,4-1.1,5.6c-0.8,1.6-1.8,2.9-3.1,4c-1.3,1.1-2.9,1.9-4.7,2.4c-1.8,0.5-3.7,0.8-5.7,0.8H232V37h-8V0.6z M238.4,19
		c2,0,3.6-0.5,4.7-1.6c1.1-1.1,1.7-2.4,1.7-3.9v-0.1c0-1.8-0.6-3.2-1.7-4.1c-1.2-0.9-2.7-1.4-4.8-1.4H232V19H238.4z"/>
	<path class="st0" d="M274.3,0.6H291c4.6,0,8.1,1.2,10.6,3.7c2.1,2.1,3.1,4.9,3.1,8.3v0.1c0,2.9-0.7,5.3-2.2,7.2
		c-1.4,1.9-3.3,3.2-5.6,4.1l8.9,13h-9.4l-7.8-11.6h-0.1h-6.2V37h-8V0.6z M290.5,18.3c2,0,3.5-0.5,4.5-1.4c1.1-0.9,1.6-2.2,1.6-3.7
		v-0.1c0-1.7-0.6-3-1.7-3.9c-1.1-0.9-2.7-1.3-4.6-1.3h-8v10.5H290.5z"/>
	<path class="st0" d="M324.4,0.4h7.4L347.4,37H339l-3.3-8.2h-15.4L317,37h-8.2L324.4,0.4z M332.8,21.8L328,10l-4.8,11.8H332.8z"/>
	<path class="st0" d="M361.5,8h-11.1V0.6h30.2V8h-11.1v29h-8V8z"/>
	<path class="st0" d="M386.7,0.6h27.4v7.1h-19.5v7.4h17.2v7.1h-17.2v7.6h19.8V37h-27.7V0.6z"/>
	<path class="st0" d="M421.6,0.6h14.2c2.8,0,5.5,0.5,7.8,1.4c2.4,0.9,4.4,2.2,6.1,3.8c1.7,1.6,3,3.5,4,5.7c0.9,2.2,1.4,4.6,1.4,7.1
		v0.1c0,2.6-0.5,5-1.4,7.2c-0.9,2.2-2.3,4.1-4,5.8c-1.7,1.6-3.8,2.9-6.1,3.8c-2.4,0.9-5,1.4-7.8,1.4h-14.2V0.6z M435.8,29.8
		c1.6,0,3.1-0.3,4.5-0.8c1.4-0.5,2.5-1.3,3.5-2.2c1-1,1.7-2.1,2.2-3.4c0.5-1.3,0.8-2.8,0.8-4.4v-0.1c0-1.6-0.3-3.1-0.8-4.4
		c-0.5-1.4-1.3-2.5-2.2-3.5c-1-1-2.1-1.7-3.5-2.3c-1.4-0.5-2.8-0.8-4.5-0.8h-6.2v21.9H435.8z"/>
	<path class="st0" d="M161.3,100c-4.9,0-8.7-1.4-11.5-4.1c-2.8-2.7-4.2-6.7-4.2-12.1V63h8v20.6c0,3,0.7,5.2,2.1,6.7s3.3,2.3,5.8,2.3
		c2.5,0,4.4-0.7,5.8-2.2s2.1-3.6,2.1-6.6V63h8v20.5c0,2.8-0.4,5.2-1.1,7.2c-0.7,2-1.8,3.8-3.2,5.1c-1.4,1.4-3.1,2.4-5,3.1
		C165.9,99.7,163.7,100,161.3,100z"/>
	<path class="st0" d="M185.4,63h14.9c2.2,0,4.1,0.3,5.8,0.9c1.7,0.6,3.2,1.5,4.4,2.6c1.2,1.1,2.1,2.4,2.8,4c0.6,1.5,1,3.2,1,5.1v0.1
		c0,2.1-0.4,4-1.1,5.6c-0.8,1.6-1.8,2.9-3.1,4c-1.3,1.1-2.9,1.9-4.7,2.4c-1.8,0.5-3.7,0.8-5.7,0.8h-6.1v10.9h-8V63z M199.8,81.4
		c2,0,3.6-0.5,4.7-1.6c1.1-1.1,1.7-2.4,1.7-3.9v-0.1c0-1.8-0.6-3.2-1.7-4.1c-1.2-0.9-2.7-1.4-4.8-1.4h-6.2v11.1H199.8z"/>
	<path class="st0" d="M217.4,63h8.6l7.5,24.6l8.2-24.8h6.9l8.2,24.8l7.5-24.6h8.4l-12.4,36.7h-7L245,75.9l-8.2,23.8h-7L217.4,63z"/>
	<path class="st0" d="M296.2,100c-2.8,0-5.4-0.5-7.7-1.5c-2.4-1-4.4-2.3-6.1-4c-1.7-1.7-3.1-3.7-4-5.9s-1.4-4.7-1.4-7.3v-0.1
		c0-2.6,0.5-5,1.5-7.3c1-2.3,2.3-4.3,4-6c1.7-1.7,3.8-3.1,6.1-4.1c2.4-1,5-1.5,7.8-1.5c2.8,0,5.4,0.5,7.7,1.5c2.4,1,4.4,2.3,6.1,4
		c1.7,1.7,3.1,3.7,4,5.9c1,2.3,1.4,4.7,1.4,7.3v0.1c0,2.6-0.5,5-1.5,7.3c-1,2.3-2.3,4.3-4,6s-3.8,3.1-6.1,4.1
		C301.6,99.6,299,100,296.2,100z M296.3,92.7c1.6,0,3.1-0.3,4.4-0.9c1.4-0.6,2.5-1.4,3.5-2.4c1-1,1.7-2.2,2.2-3.6
		c0.5-1.4,0.8-2.8,0.8-4.4v-0.1c0-1.6-0.3-3-0.8-4.4c-0.5-1.4-1.3-2.6-2.3-3.6c-1-1-2.2-1.9-3.5-2.5c-1.4-0.6-2.8-0.9-4.4-0.9
		c-1.6,0-3.1,0.3-4.4,0.9c-1.3,0.6-2.5,1.4-3.4,2.4c-1,1-1.7,2.2-2.2,3.6c-0.5,1.4-0.8,2.8-0.8,4.4v0.1c0,1.6,0.3,3,0.8,4.4
		c0.5,1.4,1.3,2.6,2.3,3.6c1,1,2.1,1.9,3.5,2.5C293.2,92.4,294.7,92.7,296.3,92.7z"/>
	<path class="st0" d="M322.7,63h16.6c4.6,0,8.1,1.2,10.6,3.7c2.1,2.1,3.1,4.9,3.1,8.3v0.1c0,2.9-0.7,5.3-2.2,7.2
		c-1.4,1.9-3.3,3.2-5.6,4.1l8.9,13h-9.4L337,87.8h-0.1h-6.2v11.6h-8V63z M338.8,80.7c2,0,3.5-0.5,4.5-1.4c1.1-0.9,1.6-2.2,1.6-3.7
		v-0.1c0-1.7-0.6-3-1.7-3.9c-1.1-0.9-2.7-1.3-4.6-1.3h-8v10.5H338.8z"/>
	<path class="st0" d="M360.3,63h8v15.9L383.1,63h9.7l-14.8,15.4l15.5,21h-9.6l-11.3-15.5l-4.2,4.4v11.1h-8V63z"/>
	<path class="st0" d="M426.3,62.8h7.4l15.6,36.7H441l-3.3-8.2h-15.4l-3.3,8.2h-8.2L426.3,62.8z M434.8,84.2l-4.8-11.8l-4.8,11.8
		H434.8z"/>
	<path class="st0" d="M472.5,100c-2.8,0-5.4-0.5-7.8-1.4c-2.3-0.9-4.4-2.2-6-3.9c-1.7-1.7-3-3.6-3.9-5.9c-0.9-2.3-1.4-4.8-1.4-7.5
		v-0.1c0-2.6,0.5-5,1.4-7.3s2.3-4.3,4-6c1.7-1.7,3.7-3.1,6-4.1c2.3-1,4.9-1.5,7.6-1.5c1.6,0,3.1,0.1,4.4,0.3c1.3,0.2,2.6,0.5,3.7,1
		c1.1,0.4,2.2,0.9,3.2,1.6s2,1.3,2.9,2.1l-5,6.1c-0.7-0.6-1.4-1.1-2.1-1.6c-0.7-0.5-1.4-0.8-2.2-1.1c-0.7-0.3-1.6-0.6-2.4-0.7
		c-0.9-0.2-1.8-0.3-2.9-0.3c-1.5,0-2.8,0.3-4.1,0.9c-1.3,0.6-2.4,1.4-3.3,2.4c-1,1-1.7,2.2-2.2,3.6s-0.8,2.8-0.8,4.4v0.1
		c0,1.7,0.3,3.2,0.8,4.6s1.3,2.6,2.3,3.7c1,1,2.1,1.9,3.5,2.4c1.3,0.6,2.8,0.9,4.4,0.9c3,0,5.5-0.7,7.5-2.2v-5.2h-8.1v-6.9H488v15.8
		c-1.9,1.6-4.1,3-6.7,4.1C478.7,99.5,475.8,100,472.5,100z"/>
	<path class="st0" d="M495.7,63h27.4v7.1h-19.5v7.4h17.2v7.1h-17.2v7.6h19.8v7.1h-27.7V63z"/>
	<path class="st0" d="M530.6,63h7.4L555,85.4V63h7.9v36.4h-6.8l-17.6-23.1v23.1h-7.9V63z"/>
	<path class="st0" d="M588.7,100c-2.7,0-5.1-0.5-7.4-1.5s-4.3-2.3-5.9-4c-1.7-1.7-3-3.7-3.9-6c-0.9-2.3-1.4-4.7-1.4-7.3v-0.1
		c0-2.6,0.5-5,1.4-7.3c0.9-2.3,2.2-4.3,3.9-6c1.7-1.7,3.7-3.1,6-4.1c2.3-1,4.9-1.5,7.7-1.5c1.7,0,3.2,0.1,4.7,0.4
		c1.4,0.3,2.7,0.7,3.8,1.1c1.1,0.5,2.2,1.1,3.2,1.8c1,0.7,1.9,1.5,2.7,2.3l-5.1,5.9c-1.4-1.3-2.9-2.3-4.3-3c-1.5-0.7-3.1-1.1-5-1.1
		c-1.5,0-2.9,0.3-4.2,0.9c-1.3,0.6-2.4,1.4-3.4,2.4c-0.9,1-1.7,2.2-2.2,3.6c-0.5,1.4-0.8,2.8-0.8,4.4v0.1c0,1.6,0.3,3,0.8,4.4
		c0.5,1.4,1.2,2.6,2.2,3.6c0.9,1,2,1.9,3.3,2.5c1.3,0.6,2.7,0.9,4.3,0.9c2.1,0,3.8-0.4,5.3-1.1c1.4-0.8,2.9-1.8,4.3-3.1l5.1,5.1
		c-0.9,1-1.9,1.9-2.9,2.7c-1,0.8-2.1,1.5-3.3,2.1c-1.2,0.6-2.5,1-3.9,1.3C592,99.9,590.5,100,588.7,100z"/>
	<path class="st0" d="M620.2,85.1l-14-22h9.4l8.7,14.6l8.8-14.6h9.1l-14,21.9v14.5h-8V85.1z"/>
</g>
</svg>
