<?xml version="1.0" encoding="utf-8"?><svg xmlns="http://www.w3.org/2000/svg" xmlns:xlink="http://www.w3.org/1999/xlink"><symbol viewBox="0 0 21 9" id="arrow-s" xmlns="http://www.w3.org/2000/svg"><path fill-rule="evenodd" d="M20 4.464l.035.036-.035.035v.464h-.464L16.5 8.035l-.729-.729 2.343-2.307H0v-1h18.12l-2.327-2.328.707-.707 3.034 3.035H20v.465z"/></symbol><symbol viewBox="0 0 367.6 367.6" id="attachment-s" xmlns="http://www.w3.org/2000/svg"><path d="M286.5 222.4L182.9 326c-34.4 34.4-90 34.4-124.4 0l-2.8-2.8c-16.4-16.4-25.6-38.8-25.6-62.4s9.2-45.6 25.6-62.4l164-164c12-12 28-18.8 45.2-18.8s33.2 6.8 45.2 18.8l8.4 8.4c24.8 24.8 24.8 65.6 0 90.4l-68 68-56 56.8c-18.8 18.8-49.2 18.8-68 0l-2.8-2.8c-18.8-18.8-18.8-49.2 0-68L231.3 80c3.2-3.2 3.2-8 0-11.2s-8-3.2-11.2 0L112.5 176c-24.8 24.8-24.8 65.6 0 90.4l2.8 2.8c12.4 12.4 28.8 18.8 45.2 18.8 16.4 0 32.8-6.4 45.2-18.8l56.4-56.4 68-68c31.2-31.2 31.2-82 0-113.2l-8.4-8.4C306.5 8 286.5 0 265.3 0c-21.2 0-41.6 8.4-56.4 23.2l-164 164c-20 19.6-30.8 46-30.8 73.6s10.8 54 30.4 73.6l2.8 2.8c20.4 20.4 46.8 30.4 73.6 30.4 26.8 0 53.2-10 73.6-30.4l103.6-103.6c3.2-3.2 3.2-8 0-11.2s-8.4-3.2-11.6 0z"/><path d="M327.3 181.6l-8.8 8.8c-3.2 3.2-3.2 8 0 11.2 1.6 1.6 3.6 2.4 5.6 2.4s4-.8 5.6-2.4l8.8-8.8c3.2-3.2 3.2-8 0-11.2-3.2-2.8-8-2.8-11.2 0z"/></symbol><symbol id="cancel-s" viewBox="0 0 64 64" xmlns="http://www.w3.org/2000/svg"><style>.cst0{fill:#1d1d1b}</style><path class="cst0" d="M28.9 31.8L.6 60.1c-.8.8-.8 2.1 0 2.8.4.5.9.7 1.4.7.5 0 1-.2 1.4-.6L32 34.4 60.5 63c.4.4.9.6 1.4.6s1-.2 1.4-.6c.8-.8.8-2.1 0-2.8L35.1 31.8 63.4 3.4c.8-.8.8-2.1 0-2.8-.8-.8-2.1-.8-2.8 0L32 29.1 3.4.6C2.6-.2 1.3-.2.6.6c-.8.8-.8 2.1 0 2.8l28.3 28.4z"/></symbol><symbol id="top-rated-s" viewBox="0 0 642.2 100.4" xmlns="http://www.w3.org/2000/svg"><style>.dst0{fill:#454547}</style><path class="dst0" d="M46.9 100.4L0 66.1V.6h93.5v65.5l-46.6 34.3zm20-48.7l7.9-21.6-15.1 5.7-13-15.8L34 35.2l-14.9-5 7.7 21.6h40.1zm-.2 5.9H27.1v5.8h39.6v-5.8zM154.6 8h-11.1V.6h30.2V8h-11.1v29h-8V8zm42.9 29.6c-2.8 0-5.4-.5-7.7-1.5-2.4-1-4.4-2.3-6.1-4-1.7-1.7-3.1-3.7-4-5.9-1-2.3-1.4-4.7-1.4-7.3v-.1c0-2.6.5-5 1.5-7.3s2.3-4.3 4-6c1.7-1.7 3.8-3.1 6.1-4.1 2.4-1 5-1.5 7.8-1.5s5.4.5 7.7 1.5c2.4 1 4.4 2.3 6.1 4 1.7 1.7 3.1 3.7 4 5.9 1 2.3 1.4 4.7 1.4 7.3v.1c0 2.6-.5 5-1.5 7.3s-2.3 4.3-4 6-3.8 3.1-6.1 4.1c-2.4 1.1-5 1.5-7.8 1.5zm.1-7.3c1.6 0 3.1-.3 4.4-.9 1.4-.6 2.5-1.4 3.5-2.4s1.7-2.2 2.2-3.6c.5-1.4.8-2.8.8-4.4v-.1c0-1.6-.3-3-.8-4.4-.5-1.4-1.3-2.6-2.3-3.6-1-1-2.2-1.9-3.5-2.5-1.4-.6-2.8-.9-4.4-.9-1.6 0-3.1.3-4.4.9-1.3.6-2.5 1.4-3.4 2.4-1 1-1.7 2.2-2.2 3.6-.5 1.4-.8 2.8-.8 4.4v.1c0 1.6.3 3 .8 4.4.5 1.4 1.3 2.6 2.3 3.6 1 1 2.1 1.9 3.5 2.5 1.2.6 2.7.9 4.3.9zM224 .6h14.9c2.2 0 4.1.3 5.8.9 1.7.6 3.2 1.5 4.4 2.6 1.2 1.1 2.1 2.4 2.8 4 .6 1.5 1 3.2 1 5.1v.1c0 2.1-.4 4-1.1 5.6-.8 1.6-1.8 2.9-3.1 4s-2.9 1.9-4.7 2.4c-1.8.5-3.7.8-5.7.8H232V37h-8V.6zM238.4 19c2 0 3.6-.5 4.7-1.6s1.7-2.4 1.7-3.9v-.1c0-1.8-.6-3.2-1.7-4.1-1.2-.9-2.7-1.4-4.8-1.4H232V19h6.4zM274.3.6H291c4.6 0 8.1 1.2 10.6 3.7 2.1 2.1 3.1 4.9 3.1 8.3v.1c0 2.9-.7 5.3-2.2 7.2-1.4 1.9-3.3 3.2-5.6 4.1l8.9 13h-9.4l-7.8-11.6h-6.3V37h-8V.6zm16.2 17.7c2 0 3.5-.5 4.5-1.4 1.1-.9 1.6-2.2 1.6-3.7v-.1c0-1.7-.6-3-1.7-3.9-1.1-.9-2.7-1.3-4.6-1.3h-8v10.5h8.2zM324.4.4h7.4L347.4 37H339l-3.3-8.2h-15.4L317 37h-8.2L324.4.4zm8.4 21.4L328 10l-4.8 11.8h9.6zM361.5 8h-11.1V.6h30.2V8h-11.1v29h-8V8zM386.7.6h27.4v7.1h-19.5v7.4h17.2v7.1h-17.2v7.6h19.8V37h-27.7V.6zm34.9 0h14.2c2.8 0 5.5.5 7.8 1.4 2.4.9 4.4 2.2 6.1 3.8 1.7 1.6 3 3.5 4 5.7.9 2.2 1.4 4.6 1.4 7.1v.1c0 2.6-.5 5-1.4 7.2-.9 2.2-2.3 4.1-4 5.8-1.7 1.6-3.8 2.9-6.1 3.8-2.4.9-5 1.4-7.8 1.4h-14.2V.6zm14.2 29.2c1.6 0 3.1-.3 4.5-.8s2.5-1.3 3.5-2.2c1-1 1.7-2.1 2.2-3.4.5-1.3.8-2.8.8-4.4v-.1c0-1.6-.3-3.1-.8-4.4-.5-1.4-1.3-2.5-2.2-3.5-1-1-2.1-1.7-3.5-2.3-1.4-.5-2.8-.8-4.5-.8h-6.2v21.9h6.2zM161.3 100c-4.9 0-8.7-1.4-11.5-4.1-2.8-2.7-4.2-6.7-4.2-12.1V63h8v20.6c0 3 .7 5.2 2.1 6.7s3.3 2.3 5.8 2.3 4.4-.7 5.8-2.2 2.1-3.6 2.1-6.6V63h8v20.5c0 2.8-.4 5.2-1.1 7.2-.7 2-1.8 3.8-3.2 5.1-1.4 1.4-3.1 2.4-5 3.1-2.2.8-4.4 1.1-6.8 1.1zm24.1-37h14.9c2.2 0 4.1.3 5.8.9 1.7.6 3.2 1.5 4.4 2.6 1.2 1.1 2.1 2.4 2.8 4 .6 1.5 1 3.2 1 5.1v.1c0 2.1-.4 4-1.1 5.6-.8 1.6-1.8 2.9-3.1 4s-2.9 1.9-4.7 2.4c-1.8.5-3.7.8-5.7.8h-6.1v10.9h-8V63zm14.4 18.4c2 0 3.6-.5 4.7-1.6s1.7-2.4 1.7-3.9v-.1c0-1.8-.6-3.2-1.7-4.1-1.2-.9-2.7-1.4-4.8-1.4h-6.2v11.1h6.3zM217.4 63h8.6l7.5 24.6 8.2-24.8h6.9l8.2 24.8 7.5-24.6h8.4l-12.4 36.7h-7L245 75.9l-8.2 23.8h-7L217.4 63zm78.8 37c-2.8 0-5.4-.5-7.7-1.5-2.4-1-4.4-2.3-6.1-4-1.7-1.7-3.1-3.7-4-5.9s-1.4-4.7-1.4-7.3v-.1c0-2.6.5-5 1.5-7.3s2.3-4.3 4-6c1.7-1.7 3.8-3.1 6.1-4.1 2.4-1 5-1.5 7.8-1.5s5.4.5 7.7 1.5c2.4 1 4.4 2.3 6.1 4 1.7 1.7 3.1 3.7 4 5.9 1 2.3 1.4 4.7 1.4 7.3v.1c0 2.6-.5 5-1.5 7.3s-2.3 4.3-4 6-3.8 3.1-6.1 4.1c-2.4 1.1-5 1.5-7.8 1.5zm.1-7.3c1.6 0 3.1-.3 4.4-.9 1.4-.6 2.5-1.4 3.5-2.4s1.7-2.2 2.2-3.6c.5-1.4.8-2.8.8-4.4v-.1c0-1.6-.3-3-.8-4.4-.5-1.4-1.3-2.6-2.3-3.6-1-1-2.2-1.9-3.5-2.5-1.4-.6-2.8-.9-4.4-.9-1.6 0-3.1.3-4.4.9-1.3.6-2.5 1.4-3.4 2.4-1 1-1.7 2.2-2.2 3.6-.5 1.4-.8 2.8-.8 4.4v.1c0 1.6.3 3 .8 4.4.5 1.4 1.3 2.6 2.3 3.6 1 1 2.1 1.9 3.5 2.5 1.2.6 2.7.9 4.3.9zM322.7 63h16.6c4.6 0 8.1 1.2 10.6 3.7 2.1 2.1 3.1 4.9 3.1 8.3v.1c0 2.9-.7 5.3-2.2 7.2-1.4 1.9-3.3 3.2-5.6 4.1l8.9 13h-9.4L337 87.8h-6.3v11.6h-8V63zm16.1 17.7c2 0 3.5-.5 4.5-1.4 1.1-.9 1.6-2.2 1.6-3.7v-.1c0-1.7-.6-3-1.7-3.9-1.1-.9-2.7-1.3-4.6-1.3h-8v10.5h8.2zM360.3 63h8v15.9L383.1 63h9.7L378 78.4l15.5 21h-9.6l-11.3-15.5-4.2 4.4v11.1h-8V63zm66-.2h7.4l15.6 36.7H441l-3.3-8.2h-15.4l-3.3 8.2h-8.2l15.5-36.7zm8.5 21.4L430 72.4l-4.8 11.8h9.6zm37.7 15.8c-2.8 0-5.4-.5-7.8-1.4-2.3-.9-4.4-2.2-6-3.9-1.7-1.7-3-3.6-3.9-5.9-.9-2.3-1.4-4.8-1.4-7.5v-.1c0-2.6.5-5 1.4-7.3s2.3-4.3 4-6c1.7-1.7 3.7-3.1 6-4.1 2.3-1 4.9-1.5 7.6-1.5 1.6 0 3.1.1 4.4.3 1.3.2 2.6.5 3.7 1 1.1.4 2.2.9 3.2 1.6s2 1.3 2.9 2.1l-5 6.1c-.7-.6-1.4-1.1-2.1-1.6-.7-.5-1.4-.8-2.2-1.1-.7-.3-1.6-.6-2.4-.7-.9-.2-1.8-.3-2.9-.3-1.5 0-2.8.3-4.1.9-1.3.6-2.4 1.4-3.3 2.4-1 1-1.7 2.2-2.2 3.6s-.8 2.8-.8 4.4v.1c0 1.7.3 3.2.8 4.6s1.3 2.6 2.3 3.7c1 1 2.1 1.9 3.5 2.4 1.3.6 2.8.9 4.4.9 3 0 5.5-.7 7.5-2.2v-5.2H472v-6.9h16v15.8c-1.9 1.6-4.1 3-6.7 4.1-2.6 1.2-5.5 1.7-8.8 1.7zm23.2-37h27.4v7.1h-19.5v7.4h17.2v7.1h-17.2v7.6h19.8v7.1h-27.7V63zm34.9 0h7.4l17 22.4V63h7.9v36.4h-6.8l-17.6-23.1v23.1h-7.9V63zm58.1 37c-2.7 0-5.1-.5-7.4-1.5s-4.3-2.3-5.9-4c-1.7-1.7-3-3.7-3.9-6-.9-2.3-1.4-4.7-1.4-7.3v-.1c0-2.6.5-5 1.4-7.3.9-2.3 2.2-4.3 3.9-6 1.7-1.7 3.7-3.1 6-4.1 2.3-1 4.9-1.5 7.7-1.5 1.7 0 3.2.1 4.7.4 1.4.3 2.7.7 3.8 1.1 1.1.5 2.2 1.1 3.2 1.8s1.9 1.5 2.7 2.3l-5.1 5.9c-1.4-1.3-2.9-2.3-4.3-3-1.5-.7-3.1-1.1-5-1.1-1.5 0-2.9.3-4.2.9-1.3.6-2.4 1.4-3.4 2.4-.9 1-1.7 2.2-2.2 3.6-.5 1.4-.8 2.8-.8 4.4v.1c0 1.6.3 3 .8 4.4.5 1.4 1.2 2.6 2.2 3.6.9 1 2 1.9 3.3 2.5 1.3.6 2.7.9 4.3.9 2.1 0 3.8-.4 5.3-1.1 1.4-.8 2.9-1.8 4.3-3.1l5.1 5.1c-.9 1-1.9 1.9-2.9 2.7-1 .8-2.1 1.5-3.3 2.1-1.2.6-2.5 1-3.9 1.3-1.7.5-3.2.6-5 .6zm31.5-14.9l-14-22h9.4l8.7 14.6 8.8-14.6h9.1l-14 21.9v14.5h-8V85.1z"/></symbol></svg>