<?xml version="1.0" encoding="utf-8"?><svg xmlns="http://www.w3.org/2000/svg" xmlns:xlink="http://www.w3.org/1999/xlink"><symbol viewBox="0 0 21 9" id="arrow-s" xmlns="http://www.w3.org/2000/svg"><path fill-rule="evenodd" d="M20 4.464l.035.036-.035.035v.464h-.464L16.5 8.035l-.729-.729 2.343-2.307H0v-1h18.12l-2.327-2.328.707-.707 3.034 3.035H20v.465z"/></symbol><symbol id="cancel-s" viewBox="0 0 64 64" xmlns="http://www.w3.org/2000/svg"><style>.bst0{fill:#1d1d1b}</style><path class="bst0" d="M28.9 31.8L.6 60.1c-.8.8-.8 2.1 0 2.8.4.5.9.7 1.4.7.5 0 1-.2 1.4-.6L32 34.4 60.5 63c.4.4.9.6 1.4.6s1-.2 1.4-.6c.8-.8.8-2.1 0-2.8L35.1 31.8 63.4 3.4c.8-.8.8-2.1 0-2.8-.8-.8-2.1-.8-2.8 0L32 29.1 3.4.6C2.6-.2 1.3-.2.6.6c-.8.8-.8 2.1 0 2.8l28.3 28.4z"/></symbol></svg>