<svg id="Layer_1" xmlns="http://www.w3.org/2000/svg" viewBox="0 0 145 29.8"><style>.st0{fill:#fff}.st1{fill:#eb2026}.st2{fill:#ec1c24}</style><path class="st0" d="M11.4 16.1c0-2.3 1.9-3.6 4.3-3.6 2.3 0 3.7.8 4.4 1.5L19 16.1c-.7-.5-1.9-1.1-3.2-1.1-.9 0-1.5.5-1.5 1 0 1.9 6.3.9 6.3 5 0 2.3-1.9 3.7-4.7 3.7-2.2 0-4.3-1.2-4.9-2l1.5-1.9c.7.8 2.5 1.5 3.6 1.5.9 0 1.5-.4 1.5-1.1.1-1.9-6.2-.9-6.2-5.1zm18.9 8.4c-1.7 4.2-2.8 5.2-4.5 5.2-1.1 0-1.8-.4-2.5-.9l1-2.3c.3.2.8.4 1.2.4.8 0 1.3-.6 1.8-1.8l.3-.6-5.4-11.7h3.6l2.7 6.4c.2.6.4 1.1.6 1.7.1-.5.2-1.1.4-1.7l2.1-6.4H35l-4.7 11.7zm6.6-11.7h3V14c.7-.8 1.9-1.4 3.4-1.4 2.9 0 4.8 1.4 4.8 5v6.9h-3v-6.3c0-1.9-1-2.8-2.6-2.8-1 0-1.8.4-2.5 1.1v8h-3V12.8h-.1zm24.5 10.5c-1.2 1-2.8 1.5-4.5 1.5-3.8 0-6.3-2.4-6.3-6.1 0-3.4 2.3-6.1 6.2-6.1 3 0 5.5 2.2 5.5 5.4 0 .7-.1 1.2-.2 1.6h-8.4c.3 1.8 1.7 2.7 3.5 2.7 1.4 0 2.6-.5 3.3-1.1l.9 2.1zm-7.7-5.7h5.7c0-1.4-1-2.5-2.7-2.5-1.8-.1-2.7.9-3 2.5zm11.4-4.8h3v1.1c.5-.8 1.3-1.4 2.7-1.4 1 0 1.4.2 1.8.4l-1.1 2.8c-.6-.3-.9-.4-1.5-.4-1 0-1.6.6-1.9 1.2v7.8h-3V12.8zm11.7 9.7c-.1-.2-.2-.5-.2-.8s.1-.6.3-.8c-1.8-.7-2.8-2.2-2.8-3.9 0-2.3 1.9-4.4 5-4.4 1.2 0 2.2.3 3 .8l3.5-.8.1 2.4-1.9.4c.2.5.3 1 .3 1.5 0 2.3-1.9 4.3-5 4.3h-.2c-.1.2-.1.3-.1.4 0 .2.1.4.2.6h.1c3.4 0 6.1 1.2 6.1 3.8s-2.7 3.8-6.1 3.8S73 28.7 73 26c0-1.9 1.6-3.1 3.8-3.5zm2.3 5c2 0 3.3-.5 3.3-1.4s-1.1-1.4-3.3-1.4c-2.1 0-3.3.6-3.3 1.4 0 .9 1.3 1.4 3.3 1.4zm0-8.7c1.3 0 2.2-.7 2.2-1.9 0-1.1-.8-2-2.2-2-1.4 0-2.2.9-2.2 2s.8 1.9 2.2 1.9zm15.3 5.7c-1.7 4.2-2.8 5.2-4.5 5.2-1.1 0-1.8-.4-2.5-.9l1-2.3c.3.2.8.4 1.2.4.8 0 1.3-.6 1.8-1.8l.3-.6-5.4-11.7h3.6l2.7 6.4c.2.6.4 1.1.6 1.7.1-.5.2-1.1.4-1.7l2.1-6.4H99l-4.6 11.7z"/><path class="st1" d="M114.3 24.6h-2.7l-2.5-6.5c-.2-.4-.3-.9-.4-1.4-.1.5-.2 1-.4 1.4l-2.5 6.4h-2.5l-3.8-11.7h3.2l1.9 6.4c.2.6.2 1 .3 1.6.1-.5.2-.9.4-1.6l2.2-6.4h2.7l2.3 6.3c.2.5.3 1.1.4 1.6.1-.5.2-1.1.4-1.7l1.7-6.3h3l-3.7 11.9zm6-11c1-.6 2.6-1.1 4.1-1.1 3.5 0 4.7 1.8 4.7 4.9v7.1h-2.6v-1.4c-.6.9-1.9 1.5-3.5 1.5-2.1 0-3.7-1.3-3.7-3.6 0-2.6 1.9-3.8 4.3-3.8 1 0 2.1.3 2.7.8.1-1.9-.4-3-2.2-3-1.4 0-2.2.4-3.1.8l-.7-2.2zm6 7.5v-1.2c-.5-.4-1.2-.6-2.1-.6-1 0-1.9.5-1.9 1.5 0 .9.7 1.4 1.7 1.4 1.2-.1 1.9-.6 2.3-1.1zm12.8 3.4c-1.7 4.2-2.8 5.2-4.5 5.2-1.1 0-1.8-.4-2.5-.9l1-2.3c.3.2.8.4 1.2.4.8 0 1.3-.6 1.8-1.8l.3-.6-5.4-11.7h3.6l2.7 6.4c.2.6.4 1.1.6 1.7.1-.5.2-1.1.4-1.7l2.1-6.4h3.4l-4.7 11.7z"/><path class="st2" d="M1.7 2.4C.8 2.4 0 3.1 0 4.1c0 .9.8 1.7 1.7 1.7 1 0 1.7-.8 1.7-1.7 0-1-.8-1.7-1.7-1.7zm0 4.4C.8 6.8 0 7.5 0 8.5s.8 1.7 1.7 1.7c1 0 1.7-.8 1.7-1.7 0-1-.8-1.7-1.7-1.7zm7.6-1c1 0 1.7-.8 1.7-1.7 0-1-.8-1.7-1.7-1.7s-1.6.8-1.6 1.7c0 .9.7 1.7 1.6 1.7zM5.5 9.2c-.9 0-1.7.8-1.7 1.8 0 .9.8 1.7 1.7 1.7s1.7-.8 1.7-1.7c0-1-.8-1.8-1.7-1.8zm0-9.2c-.8 0-1.6.8-1.6 1.7 0 1 .8 1.7 1.7 1.7 1 0 1.7-.7 1.7-1.7C7.3.8 6.5 0 5.5 0zm3.8 6.8c-.9 0-1.6.8-1.6 1.7 0 1 .7 1.7 1.6 1.7 1 0 1.7-.8 1.7-1.7.1-1-.7-1.7-1.7-1.7z"/></svg>