<?xml version="1.0" encoding="utf-8"?><svg xmlns="http://www.w3.org/2000/svg" xmlns:xlink="http://www.w3.org/1999/xlink"><symbol viewBox="0 0 21 9" id="arrow-s" xmlns="http://www.w3.org/2000/svg"><path fill-rule="evenodd" d="M20 4.464l.035.036-.035.035v.464h-.464L16.5 8.035l-.729-.729 2.343-2.307H0v-1h18.12l-2.327-2.328.707-.707 3.034 3.035H20v.465z"/></symbol><symbol viewBox="0 0 367.6 367.6" id="attachment-s" xmlns="http://www.w3.org/2000/svg"><path d="M286.5 222.4L182.9 326c-34.4 34.4-90 34.4-124.4 0l-2.8-2.8c-16.4-16.4-25.6-38.8-25.6-62.4s9.2-45.6 25.6-62.4l164-164c12-12 28-18.8 45.2-18.8s33.2 6.8 45.2 18.8l8.4 8.4c24.8 24.8 24.8 65.6 0 90.4l-68 68-56 56.8c-18.8 18.8-49.2 18.8-68 0l-2.8-2.8c-18.8-18.8-18.8-49.2 0-68L231.3 80c3.2-3.2 3.2-8 0-11.2s-8-3.2-11.2 0L112.5 176c-24.8 24.8-24.8 65.6 0 90.4l2.8 2.8c12.4 12.4 28.8 18.8 45.2 18.8 16.4 0 32.8-6.4 45.2-18.8l56.4-56.4 68-68c31.2-31.2 31.2-82 0-113.2l-8.4-8.4C306.5 8 286.5 0 265.3 0c-21.2 0-41.6 8.4-56.4 23.2l-164 164c-20 19.6-30.8 46-30.8 73.6s10.8 54 30.4 73.6l2.8 2.8c20.4 20.4 46.8 30.4 73.6 30.4 26.8 0 53.2-10 73.6-30.4l103.6-103.6c3.2-3.2 3.2-8 0-11.2s-8.4-3.2-11.6 0z"/><path d="M327.3 181.6l-8.8 8.8c-3.2 3.2-3.2 8 0 11.2 1.6 1.6 3.6 2.4 5.6 2.4s4-.8 5.6-2.4l8.8-8.8c3.2-3.2 3.2-8 0-11.2-3.2-2.8-8-2.8-11.2 0z"/></symbol><symbol id="cancel-s" viewBox="0 0 64 64" xmlns="http://www.w3.org/2000/svg"><style>.cst0{fill:#1d1d1b}</style><path class="cst0" d="M28.9 31.8L.6 60.1c-.8.8-.8 2.1 0 2.8.4.5.9.7 1.4.7.5 0 1-.2 1.4-.6L32 34.4 60.5 63c.4.4.9.6 1.4.6s1-.2 1.4-.6c.8-.8.8-2.1 0-2.8L35.1 31.8 63.4 3.4c.8-.8.8-2.1 0-2.8-.8-.8-2.1-.8-2.8 0L32 29.1 3.4.6C2.6-.2 1.3-.2.6.6c-.8.8-.8 2.1 0 2.8l28.3 28.4z"/></symbol></svg>