<?xml version="1.0" encoding="utf-8"?>
<!-- Generator: Adobe Illustrator 21.1.0, SVG Export Plug-In . SVG Version: 6.00 Build 0)  -->
<svg version="1.1" id="Layer_1" xmlns="http://www.w3.org/2000/svg" xmlns:xlink="http://www.w3.org/1999/xlink" x="0px" y="0px"
	 viewBox="0 0 331.7 69" style="enable-background:new 0 0 331.7 69;" xml:space="preserve">
<style type="text/css">
	.st0{fill:#1E1E21;}
	.st1{fill:#EC2127;}
	.st2{fill:#ED1C24;}
</style>
<g>
	<path class="st0" d="M26.4,37.1c0-5.3,4.3-8.2,9.9-8.2c5.2,0,8.6,1.9,10.3,3.4L44,37.2c-1.6-1.3-4.4-2.6-7.3-2.6
		c-2.1,0-3.4,1.1-3.4,2.3c0,4.5,14.6,2,14.6,11.6c0,5.3-4.3,8.6-10.9,8.6c-5,0-10-2.7-11.3-4.6l3.4-4.5c1.6,1.7,5.7,3.4,8.4,3.4
		c2,0,3.5-0.8,3.5-2.5C41,44.6,26.4,47,26.4,37.1z"/>
	<path class="st0" d="M69.9,56.6c-4,9.7-6.5,12-10.4,12c-2.5,0-4.3-1-5.8-2.1l2.2-5.2c0.7,0.4,1.7,1,2.8,1c1.7,0,3-1.4,4.1-4.2
		l0.6-1.4L51,29.6h8.3l6.3,14.8c0.5,1.3,0.9,2.6,1.3,3.9c0.2-1.3,0.5-2.6,1-4l4.9-14.7h7.9L69.9,56.6z"/>
	<path class="st0" d="M85.3,29.6h6.9v2.7c1.6-1.7,4.5-3.2,7.7-3.2c6.6,0,11.1,3.2,11.1,11.6v15.8h-6.9V41.9c0-4.3-2.2-6.4-6.1-6.4
		c-2.3,0-4.3,1-5.9,2.6v18.4h-6.9V29.6z"/>
	<path class="st0" d="M141.8,53.9c-2.7,2.3-6.5,3.4-10.3,3.4c-8.7,0-14.5-5.6-14.5-14.2c0-7.9,5.4-14.2,14.3-14.2
		c7,0,12.8,5,12.8,12.5c0,1.7-0.1,2.7-0.4,3.7h-19.5c0.6,4.1,3.8,6.3,8.1,6.3c3.3,0,6.1-1.2,7.6-2.5L141.8,53.9z M123.9,40.5h13.3
		c0.1-3.3-2.2-5.9-6.2-5.9C126.8,34.7,124.6,37,123.9,40.5z"/>
	<path class="st0" d="M150.2,29.6h6.9v2.6c1.3-1.7,2.9-3.1,6.2-3.1c2.2,0,3.3,0.4,4.2,1l-2.5,6.5c-1.3-0.8-2-1-3.5-1
		c-2.4,0-3.7,1.3-4.4,2.9v18.1h-6.9V29.6z"/>
	<path class="st0" d="M177.3,51.9c-0.3-0.5-0.5-1.3-0.5-1.9c0-0.7,0.2-1.4,0.6-1.9c-4.1-1.6-6.4-5.1-6.4-9.1
		c0-5.4,4.4-10.1,11.5-10.1c2.7,0,5,0.7,6.9,1.9l8.2-1.8l0.2,5.5l-4.5,1c0.4,1.1,0.7,2.3,0.7,3.5c0,5.4-4.5,10-11.5,10H182
		c-0.1,0.4-0.1,0.7-0.1,1c0,0.5,0.1,1,0.4,1.4h0.3c7.9,0,14,2.8,14,8.8c0,6.1-6.2,8.8-14,8.8c-7.9,0-14-2.6-14-8.8
		C168.5,55.7,172.1,53,177.3,51.9z M182.6,63.5c4.7,0,7.6-1.1,7.6-3.3c0-2-2.6-3.3-7.6-3.3c-4.9,0-7.6,1.3-7.6,3.3
		C174.9,62.3,177.9,63.5,182.6,63.5z M182.5,43.4c2.9,0,5-1.7,5-4.4c0-2.5-1.8-4.6-5-4.6c-3.1,0-5,2.1-5,4.6
		C177.5,41.6,179.4,43.4,182.5,43.4z"/>
	<path class="st0" d="M218,56.6c-4,9.7-6.5,12-10.4,12c-2.5,0-4.3-1-5.8-2.1l2.2-5.2c0.7,0.4,1.7,1,2.8,1c1.7,0,3-1.4,4.1-4.2
		l0.6-1.4l-12.5-27h8.3l6.3,14.8c0.5,1.3,0.9,2.6,1.3,3.9c0.2-1.3,0.5-2.6,1-4l4.9-14.7h7.9L218,56.6z"/>
	<path class="st1" d="M264,56.7h-6.2l-5.8-15c-0.4-1-0.6-2.2-0.9-3.2c-0.2,1.2-0.5,2.2-1,3.3l-5.7,14.9h-5.9l-8.8-27.1h7.4l4.3,14.7
		c0.4,1.3,0.5,2.3,0.8,3.6c0.3-1.1,0.5-2.1,1-3.6l5-14.7h6.1l5.2,14.6c0.4,1.2,0.7,2.5,1,3.7c0.2-1.3,0.5-2.6,0.8-3.9l4-14.5h7
		L264,56.7z"/>
	<path class="st1" d="M277.6,31.5c2.3-1.4,6-2.6,9.5-2.6c8,0,10.8,4.1,10.8,11.2v16.4h-6v-3.1c-1.4,2-4.3,3.5-8,3.5
		c-4.9,0-8.5-3.1-8.5-8.3c0-5.9,4.4-8.8,9.8-8.8c2.4,0,4.8,0.8,6.1,1.7c0.2-4.5-1-7-5-7c-3.1,0-5.1,1-7.1,1.9L277.6,31.5z
		 M291.4,48.6v-2.8c-1.2-0.9-2.8-1.3-4.7-1.3c-2.3,0-4.3,1.1-4.3,3.4c0,2,1.7,3.2,3.8,3.2C289.1,51.1,290.6,49.8,291.4,48.6z"/>
	<path class="st1" d="M321,56.6c-4,9.7-6.5,12-10.4,12c-2.5,0-4.3-1-5.8-2.1l2.2-5.2c0.7,0.4,1.7,1,2.8,1c1.7,0,3-1.4,4.1-4.2
		l0.6-1.4l-12.5-27h8.3l6.3,14.8c0.5,1.3,0.9,2.6,1.3,3.9c0.2-1.3,0.5-2.6,1-4l4.9-14.7h7.9L321,56.6z"/>
</g>
<g>
	<path class="st2" d="M3.9,5.5C1.7,5.5,0,7.3,0,9.5c0,2.1,1.7,3.9,3.9,3.9c2.2,0,3.9-1.8,3.9-3.9C7.8,7.3,6.1,5.5,3.9,5.5z"/>
	<path class="st2" d="M3.9,15.6c-2.1,0-3.9,1.7-3.9,3.9c0,2.2,1.7,4,3.9,4c2.2,0,3.9-1.8,3.9-4C7.8,17.3,6.1,15.6,3.9,15.6z"/>
	<path class="st2" d="M21.5,13.4c2.2,0,4-1.8,4-3.9c0-2.2-1.8-4-4-4c-2.1,0-3.8,1.8-3.8,4C17.7,11.6,19.4,13.4,21.5,13.4z"/>
	<path class="st2" d="M12.7,21.2c-2,0-3.9,1.8-3.9,4.1c0,2,1.9,3.9,3.9,3.9c2.1,0,4-1.9,4-3.9C16.7,23,14.8,21.2,12.7,21.2z"/>
	<path class="st2" d="M12.8,0c-2,0-3.9,1.8-3.9,3.9c0,2.2,1.8,3.9,3.9,3.9c2.3,0,4-1.7,4-3.9C16.8,1.8,15.1,0,12.8,0z"/>
	<path class="st2" d="M21.5,15.6c-2.1,0-3.8,1.7-3.8,3.9c0,2.2,1.7,4,3.8,4c2.2,0,4-1.8,4-4C25.5,17.3,23.7,15.6,21.5,15.6z"/>
</g>
</svg>
